# xmcd
#
# Track frame offsets: 
#        150
#        23446
#        41902
#        57373
#        70377
#        90521
#        106510
#        126808
#        147654
#        166187
#        191191
#        213956
#        235836
#        257495
#        280253
#        296173
#
# Disc length: 4270 seconds
#
# Revision: 0
# Processed by: cddbd v1.5.2PL0 Copyright (c) Steve Scherf et al.
# Submitted via: ExactAudioCopy v0.99pb4
#
DISCID=ea10ac10
DTITLE=Guts - Freedom
DYEAR=2009
DGENRE=Instrumental Hip-Hop
TTITLE0=Introducing Mr. F
TTITLE1=Trouble In France
TTITLE2=I Am What I Eat
TTITLE3=Bubble (Part 1)
TTITLE4=Keep The Air In My Music
TTITLE5=L.U.V
TTITLE6=You're Living Like Pigs
TTITLE7=Give Up Your Guns
TTITLE8=Teenage Rebellion
TTITLE9=We Want To Be Different
TTITLE10=We Hope
TTITLE11=Cause We Understand
TTITLE12=I Want You Tonight
TTITLE13=Bad Side Of Sex
TTITLE14=Te Enamores De Mi
TTITLE15=Silence, Ca Fume (Part 1)
EXTD=
EXTT0=
EXTT1=
EXTT2=
EXTT3=
EXTT4=
EXTT5=
EXTT6=
EXTT7=
EXTT8=
EXTT9=
EXTT10=
EXTT11=
EXTT12=
EXTT13=
EXTT14=
EXTT15=
PLAYORDER=
